<svg id="Layer_1" data-name="Layer 1" xmlns="http://www.w3.org/2000/svg" viewBox="0 0 40 40"><defs><style>.cls-1{fill:#92989d;}</style></defs><title>Instagram</title><path class="cls-1" d="M20,4.83c4.94,0,5.52,0,7.48.11a10.24,10.24,0,0,1,3.44.64A5.73,5.73,0,0,1,33,7a5.73,5.73,0,0,1,1.38,2.13,10.24,10.24,0,0,1,.64,3.44c.09,2,.11,2.54.11,7.48s0,5.52-.11,7.48a10.24,10.24,0,0,1-.64,3.44,6.13,6.13,0,0,1-3.51,3.51,10.24,10.24,0,0,1-3.44.64c-2,.09-2.54.11-7.48.11s-5.53,0-7.48-.11a10.24,10.24,0,0,1-3.44-.64A5.73,5.73,0,0,1,7,33a5.73,5.73,0,0,1-1.38-2.13,10.24,10.24,0,0,1-.64-3.44c-.09-2-.11-2.54-.11-7.48s0-5.52.11-7.48a10.24,10.24,0,0,1,.64-3.44A5.73,5.73,0,0,1,7,7,5.73,5.73,0,0,1,9.09,5.58a10.24,10.24,0,0,1,3.44-.64c2-.09,2.54-.11,7.48-.11M20,1.5c-5,0-5.65,0-7.63.11a13.58,13.58,0,0,0-4.49.86A9.07,9.07,0,0,0,4.61,4.61,9.07,9.07,0,0,0,2.47,7.88a13.58,13.58,0,0,0-.86,4.49c-.09,2-.11,2.6-.11,7.63s0,5.65.11,7.63a13.58,13.58,0,0,0,.86,4.49,9.07,9.07,0,0,0,2.13,3.28,9.07,9.07,0,0,0,3.28,2.13,13.58,13.58,0,0,0,4.49.86c2,.09,2.6.11,7.63.11s5.65,0,7.63-.11a13.58,13.58,0,0,0,4.49-.86,9.46,9.46,0,0,0,5.41-5.41,13.58,13.58,0,0,0,.86-4.49c.09-2,.11-2.6.11-7.63s0-5.65-.11-7.63a13.58,13.58,0,0,0-.86-4.49,9.07,9.07,0,0,0-2.13-3.28,9.07,9.07,0,0,0-3.28-2.13,13.58,13.58,0,0,0-4.49-.86c-2-.09-2.6-.11-7.63-.11Z"/><path class="cls-1" d="M20,10.5A9.5,9.5,0,1,0,29.5,20,9.5,9.5,0,0,0,20,10.5Zm0,15.67A6.17,6.17,0,1,1,26.17,20,6.17,6.17,0,0,1,20,26.17Z"/><circle class="cls-1" cx="29.88" cy="10.12" r="2.22"/></svg>
