<svg 
 xmlns="http://www.w3.org/2000/svg"
 xmlns:xlink="http://www.w3.org/1999/xlink"
 width="24px" height="24px">
<path fill-rule="evenodd"  fill="rgb(255, 255, 255)"
 d="M24.000,15.405 L24.000,22.667 C24.000,23.402 23.376,24.000 22.605,24.000 L1.396,24.000 C0.625,24.000 -0.000,23.402 -0.000,22.667 L-0.000,15.405 C-0.000,14.670 0.625,14.072 1.395,14.072 C2.166,14.072 2.791,14.670 2.791,15.405 L2.791,21.333 L21.209,21.333 L21.209,15.405 C21.209,14.670 21.834,14.072 22.604,14.072 C23.375,14.072 24.000,14.670 24.000,15.405 ZM11.003,17.077 C11.266,17.334 11.625,17.479 12.000,17.479 C12.376,17.479 12.734,17.334 12.997,17.077 L18.564,11.647 C19.103,11.121 19.094,10.277 18.543,9.761 C17.993,9.247 17.109,9.255 16.570,9.782 L13.395,12.878 L13.395,1.333 C13.395,0.597 12.770,-0.000 12.000,-0.000 C11.229,-0.000 10.605,0.597 10.605,1.333 L10.605,12.878 L7.431,9.782 C6.892,9.255 6.009,9.247 5.458,9.761 C4.907,10.276 4.898,11.121 5.437,11.647 L11.003,17.077 Z"/>
</svg>