<svg id="Layer_1" data-name="Layer 1" xmlns="http://www.w3.org/2000/svg" viewBox="0 0 40 40"><defs></defs><title>Twitter</title><path class="cls-1" d="M37.78,8.91a14.44,14.44,0,0,1-4.15,1.14,7.24,7.24,0,0,0,3.18-4,14.49,14.49,0,0,1-4.59,1.76A7.24,7.24,0,0,0,19.89,14.4,20.53,20.53,0,0,1,5,6.85,7.24,7.24,0,0,0,7.22,16.5a7.2,7.2,0,0,1-3.27-.9,7.24,7.24,0,0,0,5.8,7.18,7.25,7.25,0,0,1-3.27.12,7.24,7.24,0,0,0,6.76,5,14.54,14.54,0,0,1-10.71,3,20.47,20.47,0,0,0,11.09,3.25c13.43,0,21-11.34,20.56-21.51A14.72,14.72,0,0,0,37.78,8.91Z"/></svg>
