<svg id="Layer_1" data-name="Layer 1" xmlns="http://www.w3.org/2000/svg" viewBox="0 0 75.73 56.5"><defs></defs><title>Gallery</title><rect class="cls-1" x="22.09" y="22" width="51.44" height="32.3" rx="1.75" ry="1.75"/><path class="cls-1" d="M22.09,44.73H14.62a2.09,2.09,0,0,1-2.09-2.09V14.52a2.09,2.09,0,0,1,2.09-2.09H61.87A2.09,2.09,0,0,1,64,14.52V22.3"/><path class="cls-1" d="M12.52,35.16H5A2.09,2.09,0,0,1,3,33.07V5A2.09,2.09,0,0,1,5,2.86H52.3A2.09,2.09,0,0,1,54.4,5v7.78"/><rect class="cls-2" x="22.09" y="21.67" width="51.44" height="32.3" rx="1.75" ry="1.75"/><path class="cls-2" d="M22.09,44.4H14.62a2.09,2.09,0,0,1-2.09-2.09V14.19a2.09,2.09,0,0,1,2.09-2.09H61.87A2.09,2.09,0,0,1,64,14.19V22"/><path class="cls-2" d="M12.52,34.83H5A2.09,2.09,0,0,1,3,32.74V4.62A2.09,2.09,0,0,1,5,2.53H52.3A2.09,2.09,0,0,1,54.4,4.62V12.4"/></svg>
