<svg id="Layer_1" data-name="Layer 1" xmlns="http://www.w3.org/2000/svg" viewBox="0 0 268.86 65.27"><defs></defs><title>SI Logo</title><path class="cls-1" d="M26.87,46.22a7.89,7.89,0,0,0-3.61-3.29,29.66,29.66,0,0,0-8.78-2c-4.13-.35-4.13-2-4.13-2.49V37.38c0-1.93.36-2.72.67-3a3.9,3.9,0,0,1,2.73-.69H16c1.69,0,2.42.35,2.73.64a3.7,3.7,0,0,1,.66,2.59v.34A1.64,1.64,0,0,0,21.16,39H26a1.64,1.64,0,0,0,1.78-1.78V36.13a9.79,9.79,0,0,0-2.69-7.31,10.21,10.21,0,0,0-7.42-2.62H12a10.14,10.14,0,0,0-7.36,2.62,9.81,9.81,0,0,0-2.68,7.31v2A11.76,11.76,0,0,0,3.37,44.2,7.34,7.34,0,0,0,7,47.47a28.54,28.54,0,0,0,4.39,1.28,37,37,0,0,0,4.37.66,6.51,6.51,0,0,1,3.06,1,2.3,2.3,0,0,1,1.08,2v.69a4,4,0,0,1-.7,2.77,3.94,3.94,0,0,1-2.69.69H13.81c-1.69,0-2.42-.35-2.73-.64a3.55,3.55,0,0,1-.67-2.53v-.45a1.64,1.64,0,0,0-1.78-1.78H3.78A1.64,1.64,0,0,0,2,52.93v1.14a9.79,9.79,0,0,0,2.68,7.31A10.11,10.11,0,0,0,12,64h6.21a10.12,10.12,0,0,0,7.36-2.62,9.8,9.8,0,0,0,2.69-7.31V52.14a11.27,11.27,0,0,0-1.43-5.92"/><path class="cls-1" d="M35.29,34.95h-2.9a1.87,1.87,0,0,1-1.2-.29,1.56,1.56,0,0,1-.33-1.17v-5A1.35,1.35,0,0,1,32.39,27h2.9a.71.71,0,0,0,.8-.8v-6.9q0-1.53,1.6-1.53h6.1a1.35,1.35,0,0,1,1.52,1.53v6.9q0,.8.87.8h5.67a1.34,1.34,0,0,1,1.52,1.52v5a1.56,1.56,0,0,1-.32,1.13,1.7,1.7,0,0,1-1.2.33H46.19c-.58,0-.87.27-.87.8V51.8a4.35,4.35,0,0,0,1,3.23,4.71,4.71,0,0,0,3.34,1h2.91a1.35,1.35,0,0,1,1.52,1.53v5a1.57,1.57,0,0,1-.32,1.13,1.7,1.7,0,0,1-1.2.33H48.15q-5.74,0-8.9-3.05t-3.16-8.72V35.75a.71.71,0,0,0-.8-.8"/><path class="cls-1" d="M73.13,64H71.39q-5.74,0-8.86-3t-3.12-8.79V38.8q0-5.74,3.12-8.79t8.86-3H88.17c1.06,0,1.6.5,1.6,1.52v34c0,1-.54,1.52-1.6,1.52h-6.1a1.35,1.35,0,0,1-1.52-1.52v-2.4h-.29A5.51,5.51,0,0,1,77.42,63a9.77,9.77,0,0,1-4.29,1m7.41-13.51V35.75c0-.53-.29-.8-.87-.8H72.84a4.42,4.42,0,0,0-3.27,1,4.69,4.69,0,0,0-.94,3.3v12.5a4.69,4.69,0,0,0,.94,3.3,4.44,4.44,0,0,0,3.27,1h2.69q5,0,5-5.52"/><path class="cls-1" d="M105.45,64H99.27a1.35,1.35,0,0,1-1.53-1.52v-34A1.35,1.35,0,0,1,99.27,27h6.17A1.34,1.34,0,0,1,107,28.49v2.4h.29q1.6-3.93,7.12-3.92h2.33q11.4,0,11.4,11.84V62.48q0,1.52-1.6,1.52h-6.1a1.35,1.35,0,0,1-1.53-1.52V39.23a4.59,4.59,0,0,0-1-3.3,4.58,4.58,0,0,0-3.31-1H112q-5,0-5,5.52v22A1.35,1.35,0,0,1,105.45,64"/><path class="cls-1" d="M149.31,64h-3q-5.59,0-8.46-3T135,52.16V38.8q0-5.74,2.87-8.79t8.46-3h3a9.72,9.72,0,0,1,4.28,1,5.53,5.53,0,0,1,2.83,2.94h.29V14.47a1.35,1.35,0,0,1,1.53-1.53h6.17a1.35,1.35,0,0,1,1.53,1.53v48A1.35,1.35,0,0,1,164.42,64h-6.17a1.35,1.35,0,0,1-1.53-1.52v-2.4h-.29A5.54,5.54,0,0,1,153.6,63a9.76,9.76,0,0,1-4.28,1m7.4-13.51v-10q0-5.52-5-5.52h-3.27a4.43,4.43,0,0,0-3.27,1,4.71,4.71,0,0,0-.94,3.3v12.5a4.71,4.71,0,0,0,.94,3.3,4.44,4.44,0,0,0,3.27,1h3.27q5,0,5-5.52"/><path class="cls-1" d="M186.93,64h-1.74q-5.74,0-8.86-3t-3.12-8.79V38.8q0-5.74,3.12-8.79t8.86-3H202c1.06,0,1.6.5,1.6,1.52v34c0,1-.54,1.52-1.6,1.52h-6.1a1.35,1.35,0,0,1-1.52-1.52v-2.4H194A5.54,5.54,0,0,1,191.22,63a9.8,9.8,0,0,1-4.29,1m7.41-13.51V35.75c0-.53-.29-.8-.87-.8h-6.83a4.42,4.42,0,0,0-3.27,1,4.69,4.69,0,0,0-.94,3.3v12.5a4.68,4.68,0,0,0,.94,3.3,4.43,4.43,0,0,0,3.27,1h2.69q5,0,5-5.52"/><path class="cls-1" d="M219.25,64h-6.17a1.35,1.35,0,0,1-1.53-1.52v-34A1.35,1.35,0,0,1,213.07,27h6.17a1.35,1.35,0,0,1,1.52,1.52V31h.29a5.67,5.67,0,0,1,2.83-3,9.44,9.44,0,0,1,4.28-1h2.62c1,0,1.45.5,1.45,1.52v5a1.68,1.68,0,0,1-.33,1.2,1.37,1.37,0,0,1-1.13.25h-5q-5,0-5,5.67V62.48A1.35,1.35,0,0,1,219.25,64"/><path class="cls-1" d="M250.47,63.61h-3q-5.59,0-8.46-3.05t-2.87-8.79V38.41q0-5.74,2.87-8.79t8.46-3h3a9.77,9.77,0,0,1,4.29,1,5.51,5.51,0,0,1,2.83,2.94h.29V14.08a1.34,1.34,0,0,1,1.52-1.52h6.18a1.35,1.35,0,0,1,1.52,1.52v48a1.35,1.35,0,0,1-1.52,1.53h-6.18a1.35,1.35,0,0,1-1.52-1.53V59.69h-.29a5.51,5.51,0,0,1-2.83,2.94,9.77,9.77,0,0,1-4.29,1m7.41-13.51v-10q0-5.52-5-5.52H249.6a4.43,4.43,0,0,0-3.26,1,4.67,4.67,0,0,0-.94,3.3V51.33a4.67,4.67,0,0,0,.94,3.31,4.43,4.43,0,0,0,3.26,1h3.27q5,0,5-5.52"/><path class="cls-2" d="M98.92,10.19a3,3,0,0,0-1,2.09v7.46c0,.71.47,1,1,.51l13-9.87a1.82,1.82,0,0,1,2.06,0l13,9.87c.57.44,1,.21,1-.51V12.28a3,3,0,0,0-1-2.09L114,.33a1.79,1.79,0,0,0-2.06,0Z"/></svg>
